<svg width="93" height="137" viewBox="0 0 93 137" fill="none" xmlns="http://www.w3.org/2000/svg">
<g clip-path="url(#clip0_23_20)">
<path d="M92.9976 72.037C92.9976 64.7714 86.9975 58.788 79.7117 58.788C77.3546 58.788 75.2117 59.4291 73.4974 60.2838C71.3545 56.01 66.8545 53.0183 61.7116 53.0183H60.2116L69.8545 16.6903C70.7116 13.2712 70.2831 9.63837 68.3545 6.64665C66.6402 3.65493 63.6402 1.3043 60.2116 0.449523C59.9973 0.449523 59.5687 0.235829 59.1401 0.235829C52.2829 -1.04633 45.8543 3.01385 43.9257 9.63837L34.9256 41.2651L26.1398 10.0658C24.2113 3.44124 17.7826 -0.618947 10.9254 0.663217C3.63966 1.94538 -1.07467 8.78359 0.211059 16.0492C0.211059 16.4766 0.425346 16.6903 0.425346 17.1177L12.854 63.0606C13.0683 64.5565 13.2826 65.8387 13.2826 67.3345V79.3014L9.21113 83.5753C6.4254 86.1396 5.13967 89.345 5.13967 93.1915C5.13967 117.339 24.8541 137 49.0698 137C73.2855 137 93 117.34 93 93.1915V92.7641V92.123L92.9976 72.037ZM79.7117 67.3357C82.2832 67.3357 84.426 69.4727 84.426 72.037V92.1243C84.426 94.6886 82.2832 96.8255 79.7117 96.8255C77.1403 96.8255 74.9974 94.6886 74.9974 92.1243V72.037C74.9974 69.4727 77.1403 67.3357 79.7117 67.3357ZM66.4259 66.481V85.0724C66.4259 87.6367 64.283 89.7736 61.7116 89.7736C59.1401 89.7736 56.9972 87.6367 56.9972 85.0724V66.481C56.9972 63.9166 59.1401 61.7797 61.7116 61.7797C64.283 61.7797 66.4259 63.9166 66.4259 66.481ZM21.2125 61.566L8.78378 14.9807V14.5533C8.3552 11.989 10.0695 9.42467 12.641 8.99728C14.9981 8.5699 17.3553 10.0658 18.2124 12.4164L29.1411 51.951C29.784 54.0879 31.284 55.7975 33.4268 56.2249C35.1411 56.6523 36.6412 56.4386 38.1412 55.5838C39.6412 54.729 40.7126 53.4469 41.1412 51.7373L52.2841 12.2027C52.7127 9.85206 55.0699 8.3562 57.6413 8.78359H58.0699C60.6414 9.42467 62.1414 11.989 61.4985 14.5533L48.6413 63.4905C48.427 64.1316 48.427 64.7726 48.427 65.4137C47.9984 64.9863 47.7841 64.559 47.3555 63.9179C41.9983 58.7892 33.4268 59.0029 28.2839 64.3453L21.8553 70.7561V67.337C21.8553 65.6274 21.641 63.4905 21.2125 61.5672V61.566ZM49.0698 128.453C29.5697 128.453 13.7112 112.64 13.7112 93.1927C13.7112 91.6969 14.1397 90.6284 14.9969 89.7736L34.2828 70.5412C36.2114 68.6179 39.4257 68.6179 41.14 70.3275C43.0686 72.2507 42.8543 75.4561 40.9257 77.3794L26.1398 92.1243C24.4255 93.8338 24.4255 96.3981 26.1398 98.1077C26.997 98.9625 28.0684 99.3899 29.1399 99.3899C30.2113 99.3899 31.2827 98.9625 32.1399 98.1077L46.9257 83.3628C47.3543 82.9354 47.7829 82.2943 48.2115 81.8669V85.0724C48.2115 92.338 54.2115 98.3214 61.4973 98.3214C63.6402 98.3214 65.5687 97.894 67.2831 97.0392C69.2116 101.954 74.1402 105.373 79.7117 105.373C80.5689 105.373 81.426 105.373 82.2832 105.16C77.3546 118.622 64.283 128.452 49.0698 128.452V128.453Z" fill="#E2D8AD"/>
</g>
<defs>
<clipPath id="clip0_23_20">
<rect width="93" height="137" fill="white"/>
</clipPath>
</defs>
</svg>
