<svg width="512" height="512" viewBox="0 0 512 512" fill="none" xmlns="http://www.w3.org/2000/svg">
<path d="M482.809 0H29.1907C13.0691 0 0 13.0496 0 29.147V482.086C0 498.184 13.0691 511.233 29.1907 511.233H482.809C498.931 511.233 512 498.184 512 482.086V29.147C512 13.0496 498.931 0 482.809 0Z" fill="#FF5325"/>
<path d="M224.424 135.475L247.384 137.742L221.75 157.646C213.955 163.7 204.355 166.99 194.479 166.99H190.188L224.424 135.475ZM428.726 339.706L420.359 366.169V375.916L452.446 391.24L476.16 327.167L442.678 282.596L418.964 332.737L428.726 339.699V339.706ZM252.962 382.885C252.962 382.885 275.281 373.138 278.07 355.029L213.902 349.46C216.691 359.207 199.95 380.1 187.399 380.1L240.404 434.425H294.811L252.962 382.892M438.158 132.576L423.363 159.839C422.784 160.902 421.208 160.781 420.817 159.631C418.594 153.072 412.079 138.993 398.033 143.312C379.897 148.881 392.455 171.167 392.455 171.167L421.262 248.713C424.253 256.678 423.936 265.51 420.372 273.246L393.856 329.959L402.223 434.425H348.544L324.103 275.64L317.528 284.378C312.812 290.365 310.744 298.013 311.781 305.554L315.035 334.836L213.902 325.781L217.667 290.661C217.795 289.47 216.307 288.825 215.525 289.726L199.95 307.666L188.787 356.415L105.088 387.055L89.7281 434.412H35.8401L62.9289 344.024C64.0068 340.432 66.7487 337.587 70.299 336.363L109.285 322.983L124.632 286.766C107.891 264.481 110.68 229.656 131.604 208.763C139.971 231.049 152.529 236.618 155.318 236.618C158.107 236.618 300.396 211.548 300.396 211.548L316.719 148.854C317.582 145.538 314.799 142.417 311.404 142.874L296.125 144.953C290.87 145.666 285.575 144.025 281.654 140.466L272.499 132.152L289.125 124.403C290.324 123.844 290.021 122.062 288.701 121.934L218.408 115.032C211.934 114.4 205.467 116.257 200.32 120.225L156.908 153.718C150.454 158.696 142.525 161.4 134.366 161.4H124.632L183.943 89.1477C190.505 81.1563 200.475 77.396 210.816 77.349C260.635 77.127 359.68 82.6967 409.89 88.4616C415.488 89.1006 420.554 92.0335 423.141 97.0314L438.225 126.145C439.269 128.156 439.242 130.558 438.164 132.549L438.158 132.576ZM377.115 105.709L343.633 112.671C343.633 112.671 349.211 122.418 354.796 121.026C360.374 119.633 375.72 115.456 375.72 115.456C375.72 115.456 379.904 112.671 377.115 105.709Z" fill="#1D1D1D"/>
</svg>
