<svg width="512" height="512" viewBox="0 0 512 512" fill="none" xmlns="http://www.w3.org/2000/svg">
<g clip-path="url(#clip0_252_176)">
<path d="M482.809 0H29.1907C13.0691 0 0 13.0496 0 29.147V482.086C0 498.184 13.0691 511.233 29.1907 511.233H482.809C498.931 511.233 512 498.184 512 482.086V29.147C512 13.0496 498.931 0 482.809 0Z" fill="#010101"/>
<path d="M256.478 66L206 133.5L256.478 201L307 133.5L256.478 66Z" fill="#FF5117"/>
<path d="M306.961 133.922L391 122L379.039 206.078L295 218L306.961 133.922Z" fill="#FF5117"/>
<path d="M379.5 206L447 256.5L379.5 307L312 256.5L379.5 206Z" fill="#FF5117"/>
<path d="M379.078 306.922L391 391L306.922 379.078L295 295L379.078 306.922Z" fill="#FF5117"/>
<path d="M307 379.5L256.5 447L206 379.5L256.5 312L307 379.5Z" fill="#FF5117"/>
<path d="M206.078 379.078L122 391L133.922 306.922L218 295L206.078 379.078Z" fill="#FF5117"/>
<path d="M133.5 307L66 256.5L133.5 206L201 256.5L133.5 307Z" fill="#FF5117"/>
<path d="M133.922 206.078L122 122L206.078 133.922L218 218L133.922 206.078Z" fill="#FF5117"/>
</g>
<defs>
<clipPath id="clip0_252_176">
<rect width="512" height="512" fill="white"/>
</clipPath>
</defs>
</svg>
